<svg height='100px' width='100px'  fill="#565454" xmlns="http://www.w3.org/2000/svg" data-name="Layer 1" viewBox="0 0 32 32" x="0px" y="0px"><title>Artboard 1</title><path d="M26.13793,14.60052a.9662.9662,0,0,1-.891-.594l-2.526-6.05381a.96448.96448,0,0,0-.892-.594H10.17107a.964.964,0,0,0-.892.594L6.7531,14.0065A.96555.96555,0,0,1,4.971,13.26256L7.497,7.20875a2.88994,2.88994,0,0,1,2.674-1.78112H21.82893a2.89218,2.89218,0,0,1,2.674,1.78065l2.526,6.05428a.96686.96686,0,0,1-.891,1.338Z"></path><path d="M6.31843,11.3716a1.6403,1.6403,0,0,0-1.36625-.73027H3.64157a1.64134,1.64134,0,1,0,0,3.28267H4.95218a1.64155,1.64155,0,0,0,1.36625-2.55193Z"></path><path d="M28.35843,10.64133H27.04782a1.6403,1.6403,0,0,0-1.36625.73027v.00047A1.64155,1.64155,0,0,0,27.04782,13.924h1.31061a1.64134,1.64134,0,1,0,0-3.28267Z"></path><path d="M25.65515,13.15173H6.34485a2.803,2.803,0,0,0-2.80042,2.79993v9.36572a1.25708,1.25708,0,0,0,1.25592,1.255H7.88928a1.25707,1.25707,0,0,0,1.25592-1.255v-1.4483H22.8548v1.4483a1.25707,1.25707,0,0,0,1.25592,1.255h3.08893a1.25708,1.25708,0,0,0,1.25592-1.255V15.95166A2.803,2.803,0,0,0,25.65515,13.15173ZM7.98639,19.52429a1.93106,1.93106,0,1,1,1.931-1.93109A1.93345,1.93345,0,0,1,7.98639,19.52429Zm11.87567,2.11017H12.13794a.48276.48276,0,1,1,0-.96551h7.72412a.48276.48276,0,1,1,0,.96551Zm4.15155-2.11017a1.93106,1.93106,0,1,1,1.931-1.93109A1.93345,1.93345,0,0,1,24.01361,19.52429Z"></path></svg>