<svg height='100px' width='100px'  fill="#565454" xmlns:dc="http://purl.org/dc/elements/1.1/" xmlns:cc="http://creativecommons.org/ns#" xmlns:rdf="http://www.w3.org/1999/02/22-rdf-syntax-ns#" xmlns:svg="http://www.w3.org/2000/svg" xmlns="http://www.w3.org/2000/svg" xmlns:sodipodi="http://sodipodi.sourceforge.net/DTD/sodipodi-0.dtd" xmlns:inkscape="http://www.inkscape.org/namespaces/inkscape" version="1.1" x="0px" y="0px" viewBox="0 0 100 100"><g transform="translate(0,-952.36218)"><path style="text-indent:0;text-transform:none;direction:ltr;block-progression:tb;baseline-shift:baseline;color:#000000;enable-background:accumulate;" d="m 29.216926,965.37796 c -5.6866,0 -11.349901,2.17163 -15.687601,6.53125 -8.6753997,8.71923 -8.6653997,22.8365 0,31.56249 l 35.0313,35.2813 a 2.0002,2.0002 0 0 0 2.8437,0 c 11.6945,-11.7534 23.3682,-23.4967 35.0626,-35.2501 8.6754,-8.71917 8.6754,-22.81196 0,-31.53119 -8.6754,-8.71923 -22.7307,-8.71933 -31.4063,0 l -5.0313,5.03125 -5.0937,-5.09375 c -4.3377,-4.35961 -10.032199,-6.53125 -15.718699,-6.53125 z m 0,3.96875 c 4.6473,0 9.294299,1.77629 12.874999,5.375 l 6.5,6.53125 a 2.0002,2.0002 0 0 0 2.8437,0 l 6.4687,-6.46875 c 7.1615,-7.19753 18.5888,-7.19741 25.75,0 7.1614,7.19741 7.1614,18.70884 0,25.90629 -11.2163,11.2729 -22.4398,22.5395 -33.6562,33.8125 l -33.6562,-33.8438 c -7.1559997,-7.20603 -7.1613997,-18.74008 0,-25.93749 3.580601,-3.5987 8.227601,-5.375 12.875001,-5.375 z" fill="#565454" fill-opacity="1" stroke="none" marker="none" visibility="visible" display="inline" overflow="visible"></path></g></svg>