<?xml version="1.0" encoding="utf-8"?>
<!-- Generator: Adobe Illustrator 25.2.1, SVG Export Plug-In . SVG Version: 6.00 Build 0)  -->
<svg version="1.1" id="Layer_1" xmlns="http://www.w3.org/2000/svg" xmlns:xlink="http://www.w3.org/1999/xlink" x="0px" y="0px"
	 viewBox="0 0 208 44" style="enable-background:new 0 0 208 44;" xml:space="preserve">
<style type="text/css">
	.st0{fill:#2E3192;}
	.st1{fill:#D51317;}
	.st2{fill:#FFFFFF;}
</style>
<g>
	<g>
		<path class="st0" d="M74.6,5.65H6.62c-0.93,0-1.69,0.76-1.69,1.69v29.8c0,0.93,0.76,1.69,1.69,1.69H74.6V5.65z"/>
		<path class="st1" d="M201.29,5.65H77.61v33.19h123.68c0.93,0,1.69-0.76,1.69-1.69V7.35C202.98,6.41,202.22,5.65,201.29,5.65z"/>
	</g>
	<g>
		<path class="st2" d="M20.47,33.13c-6.24,0-10.87-4.82-10.87-10.9v-0.06c0-6.03,4.54-10.96,11.06-10.96c4,0,6.39,1.33,8.36,3.27
			l-2.97,3.42c-1.64-1.48-3.3-2.39-5.42-2.39c-3.57,0-6.15,2.97-6.15,6.6v0.06c0,3.63,2.51,6.66,6.15,6.66
			c2.42,0,3.91-0.97,5.57-2.48l2.97,3C26.98,31.68,24.55,33.13,20.47,33.13z"/>
		<path class="st2" d="M46.85,32.77l-1.94-4.76h-8.97L34,32.77h-4.76l9.09-21.35h4.3l9.09,21.35H46.85z M40.43,17.02l-2.82,6.88
			h5.63L40.43,17.02z"/>
		<path class="st2" d="M65.44,32.77l-4.54-6.78h-3.66v6.78h-4.66v-21.2h9.69c5,0,8,2.64,8,7v0.06c0,3.42-1.85,5.57-4.54,6.57
			l5.18,7.57H65.44z M65.53,18.81c0-2-1.39-3.03-3.66-3.03h-4.63v6.09h4.73c2.27,0,3.57-1.21,3.57-3V18.81z"/>
		<path class="st2" d="M90.01,32.77h-8.27v-21.2h8.27c6.66,0,11.27,4.57,11.27,10.54v0.06C101.27,28.14,96.67,32.77,90.01,32.77z
			 M96.4,22.17c0-3.76-2.57-6.39-6.39-6.39h-3.6v12.78h3.6c3.82,0,6.39-2.57,6.39-6.33V22.17z"/>
		<path class="st2" d="M104.21,32.77v-21.2h15.99v4.15h-11.36v4.3h10v4.15h-10v4.45h11.51v4.15H104.21z"/>
		<path class="st2" d="M137.86,32.77l-1.94-4.76h-8.97l-1.94,4.76h-4.76l9.09-21.35h4.3l9.09,21.35H137.86z M131.44,17.02
			l-2.82,6.88h5.63L131.44,17.02z"/>
		<path class="st2" d="M144.19,32.77v-21.2h4.66v16.96h10.57v4.24H144.19z"/>
		<path class="st2" d="M160.52,32.77v-21.2h15.99v4.15h-11.36v4.3h10v4.15h-10v4.45h11.51v4.15H160.52z"/>
		<path class="st2" d="M191.87,32.77l-4.54-6.78h-3.66v6.78h-4.66v-21.2h9.69c5,0,8,2.64,8,7v0.06c0,3.42-1.85,5.57-4.54,6.57
			l5.18,7.57H191.87z M191.96,18.81c0-2-1.39-3.03-3.66-3.03h-4.63v6.09h4.73c2.27,0,3.57-1.21,3.57-3V18.81z"/>
	</g>
	<path class="st0" d="M205.06,42.25H2.85c-0.86,0-1.57-0.7-1.57-1.57V3.81c0-0.86,0.7-1.57,1.57-1.57h202.22
		c0.86,0,1.57,0.7,1.57,1.57v36.87C206.63,41.55,205.93,42.25,205.06,42.25z M2.85,3.42c-0.22,0-0.4,0.18-0.4,0.4v36.87
		c0,0.22,0.18,0.4,0.4,0.4h202.22c0.22,0,0.4-0.18,0.4-0.4V3.81c0-0.22-0.18-0.4-0.4-0.4H2.85z"/>
</g>
</svg>
