<svg height='100px' width='100px'  fill="#565454" xmlns="http://www.w3.org/2000/svg" xmlns:xlink="http://www.w3.org/1999/xlink" version="1.1" x="0px" y="0px" viewBox="0 0 100 100" style="enable-background:new 0 0 100 100;" xml:space="preserve"><style type="text/css">
	.st0{fill-rule:evenodd;clip-rule:evenodd;}
</style><path class="st0" d="M86.5,54.5h-72c-2.2,0-4-1.8-4-4c0-2.2,1.8-4,4-4h72c2.2,0,4,1.8,4,4C90.5,52.7,88.7,54.5,86.5,54.5z   M86.5,30.5h-72c-2.2,0-4-1.8-4-4s1.8-4,4-4h72c2.2,0,4,1.8,4,4S88.7,30.5,86.5,30.5z M14.5,70.5h72c2.2,0,4,1.8,4,4s-1.8,4-4,4h-72  c-2.2,0-4-1.8-4-4S12.3,70.5,14.5,70.5z"></path></svg>