<svg height='100px' width='100px'  fill="#565454" xmlns="http://www.w3.org/2000/svg" xmlns:xlink="http://www.w3.org/1999/xlink" version="1.1" x="0px" y="0px" viewBox="0 0 100 100" enable-background="new 0 0 100 100" xml:space="preserve"><path d="M94.273,90.768L66.066,62.561c5.496-6.33,8.512-14.381,8.512-22.771c0-19.183-15.605-34.789-34.789-34.789  c-19.183,0-34.788,15.606-34.788,34.789c0,19.183,15.605,34.788,34.788,34.788c8.39,0,16.441-3.016,22.771-8.512l28.207,28.207  c0.467,0.469,1.09,0.728,1.752,0.728c0.664,0,1.285-0.259,1.754-0.728s0.728-1.09,0.728-1.754  C95.001,91.857,94.742,91.234,94.273,90.768z M39.789,69.618C23.342,69.618,9.96,56.236,9.96,39.79  c0-16.449,13.381-29.831,29.829-29.831c16.447,0,29.829,13.382,29.829,29.831C69.618,56.236,56.236,69.618,39.789,69.618z"></path></svg>